<svg xmlns="http://www.w3.org/2000/svg" width="24" height="24" viewBox="0 0 24 24">
    <path style="fill:transparent" d="M0 0h24v24H0z"/>
    <path data-name="Path 17880" d="M6.267 3.455a3.066 3.066 0 0 0 1.745-.723 3.066 3.066 0 0 1 3.976 0 3.066 3.066 0 0 0 1.745.723 3.066 3.066 0 0 1 2.812 2.812 3.062 3.062 0 0 0 .723 1.745 3.066 3.066 0 0 1 0 3.976 3.066 3.066 0 0 0-.723 1.745 3.066 3.066 0 0 1-2.812 2.812 3.066 3.066 0 0 0-1.745.723 3.066 3.066 0 0 1-3.976 0 3.066 3.066 0 0 0-1.745-.723 3.066 3.066 0 0 1-2.812-2.812 3.066 3.066 0 0 0-.723-1.745 3.066 3.066 0 0 1 0-3.976 3.066 3.066 0 0 0 .723-1.745 3.066 3.066 0 0 1 2.812-2.812zm7.44 5.252a1 1 0 1 0-1.414-1.414L9 10.586 7.707 9.293a1 1 0 1 0-1.414 1.414l2 2a1 1 0 0 0 1.414 0l4-4z" transform="translate(2 2)" style="fill:#141b29;fill-rule:evenodd"/>
</svg>
