<svg xmlns="http://www.w3.org/2000/svg" width="16" height="16" viewBox="0 0 16 16">
    <path data-name="Rectangle 19728" style="fill:transparent" d="M0 0h16v16H0z"/>
    <path data-name="Path 17827" d="M8 5.7V13m0-7.3A4.523 4.523 0 0 0 5.5 5a4.523 4.523 0 0 0-2.5.7V13a4.523 4.523 0 0 1 2.5-.7A4.523 4.523 0 0 1 8 13m0-7.3a4.523 4.523 0 0 1 2.5-.7 4.522 4.522 0 0 1 2.5.7V13a4.522 4.522 0 0 0-2.5-.7A4.523 4.523 0 0 0 8 13" transform="translate(0 -1)" style="fill:none;stroke:currentColor;stroke-linecap:round;stroke-linejoin:round"/>
</svg>
