<svg xmlns="http://www.w3.org/2000/svg" width="12" height="12" viewBox="0 0 12 12">
    <path d="M0 0h11.989v11.989H0zm0 0h11.989v11.989H0zm0 0h11.989v11.989H0zm0 0h11.989v11.989H0z" style="fill:transparent"/>
    <rect data-name="Rectangle 17869" width="12" height="12" rx="6" style="fill:#48bea2"/>
    <path data-name="Path 1" d="M10.337 5.154a.517.517 0 0 1 0 .742l-4.282 4.2a.543.543 0 0 1-.757 0l-2.141-2.1a.517.517 0 0 1 0-.742.543.543 0 0 1 .757 0l1.762 1.725 3.9-3.826a.543.543 0 0 1 .761.001z" transform="translate(-.752 -1.628)" style="fill:#fff;fill-rule:evenodd"/>
</svg>
