<svg xmlns="http://www.w3.org/2000/svg" width="32" height="32" viewBox="0 0 32 32">
    <path data-name="Rectangle 19728" style="fill:transparent" d="M0 0h32v32H0z"/>
    <g data-name="Group 21827">
        <path data-name="Path 17811" d="M12.677 3.316a1.726 1.726 0 0 0-3.353 0 1.724 1.724 0 0 1-2.572 1.067 1.724 1.724 0 0 0-2.369 2.369 1.725 1.725 0 0 1-1.066 2.573 1.724 1.724 0 0 0 0 3.35 1.724 1.724 0 0 1 1.065 2.573 1.724 1.724 0 0 0 2.369 2.369 1.724 1.724 0 0 1 2.573 1.065 1.724 1.724 0 0 0 3.35 0 1.725 1.725 0 0 1 2.573-1.065 1.724 1.724 0 0 0 2.369-2.369 1.725 1.725 0 0 1 1.065-2.573 1.724 1.724 0 0 0 0-3.35 1.724 1.724 0 0 1-1.065-2.573 1.724 1.724 0 0 0-2.369-2.369 1.724 1.724 0 0 1-2.573-1.065zM11 14.375A3.375 3.375 0 1 0 7.625 11 3.375 3.375 0 0 0 11 14.375z" transform="translate(5 5)" style="fill:#fff;fill-rule:evenodd"/>
    </g>
</svg>
