<svg xmlns="http://www.w3.org/2000/svg" width="32" height="32" viewBox="0 0 32 32">
    <path data-name="Rectangle 19728" style="fill:transparent" d="M0 0h32v32H0z"/>
    <g data-name="Group 21827">
        <path data-name="Path 17843" d="M8.714 5.375a1.125 1.125 0 1 0 0 2.25H15.1L13.621 9.08a1.112 1.112 0 0 0 0 1.591 1.156 1.156 0 0 0 1.616 0L18.666 7.3a1.113 1.113 0 0 0 0-1.591L15.237 2.33a1.156 1.156 0 0 0-1.616 0 1.113 1.113 0 0 0 0 1.591L15.1 5.375zm4.572 11.25a1.125 1.125 0 1 0 0-2.25H6.9l1.48-1.455a1.112 1.112 0 0 0 0-1.591 1.156 1.156 0 0 0-1.616 0L3.335 14.7a1.113 1.113 0 0 0 0 1.591l3.429 3.379a1.156 1.156 0 0 0 1.616 0 1.113 1.113 0 0 0 0-1.591L6.9 16.625z" transform="translate(5 5)" style="fill:#fff"/>
    </g>
</svg>
