<svg xmlns="http://www.w3.org/2000/svg" viewBox="0 0 24 24">
    <g transform="translate(-3123 8452)">
        <path data-name="Path 17812" d="M11.625 4.625v.006m0 4.369v.006m0 4.369v.006m0-8.131a.625.625 0 1 1 .625-.625.625.625 0 0 1-.625.625zm0 4.375A.625.625 0 1 1 12.25 9a.625.625 0 0 1-.625.625zm0 4.375a.625.625 0 1 1 .625-.625.625.625 0 0 1-.625.625z" transform="rotate(90 5797.875 -2653.875)" style="stroke:currentColor;stroke-linecap:round;stroke-linejoin:round;stroke-width:2px;fill:none"/>
    </g>
</svg>
