<svg xmlns="http://www.w3.org/2000/svg" width="24" height="24" viewBox="0 0 24 24">
    <g transform="translate(-3123 8452)">
        <rect data-name="Rectangle 1" width="24" height="24" rx="8" transform="translate(3123 -8452)" style="fill:#e3e9f3"/>
        <path data-name="Path 17716" d="M11.75 4.75v.008m0 5.242v.007m0 5.243v.007m0-9.758a.75.75 0 1 1 .75-.75.75.75 0 0 1-.75.751zm0 5.25A.75.75 0 1 1 12.5 10a.75.75 0 0 1-.75.75zm0 5.25a.75.75 0 1 1 .75-.75.75.75 0 0 1-.75.751z" transform="translate(3123.25 -8450)" style="fill:none;stroke:#9aa2ac;stroke-linecap:round;stroke-linejoin:round;stroke-width:2px"/>
    </g>
</svg>
