<svg xmlns="http://www.w3.org/2000/svg" width="16" height="16" viewBox="0 0 16 16">
    <defs>
        <style>
            .cls-trash{fill:currentColor}
        </style>
    </defs>
    <g id="delete_16dp" transform="translate(3957)">
        <g id="Group_22028" data-name="Group 22028" transform="translate(-3958 -1)">
            <path id="Path_17846" data-name="Path 17846" class="cls-trash" d="M7 8.715A1.715 1.715 0 0 1 8.715 7h5.145a1.715 1.715 0 0 1 1.715 1.715v5.145a1.715 1.715 0 0 1-1.715 1.715H8.715A1.715 1.715 0 0 1 7 13.86z" transform="translate(-.575 -.575)"/>
            <path id="Path_17847" data-name="Path 17847" class="cls-trash" d="M4.715 3A1.715 1.715 0 0 0 3 4.715V9.86a1.715 1.715 0 0 0 1.715 1.715v-6.86h6.86A1.715 1.715 0 0 0 9.86 3z"/>
        </g>
    </g>
</svg>
