<svg xmlns="http://www.w3.org/2000/svg" width="24" height="24" viewBox="0 0 24 24">
    <path data-name="Rectangle 1" style="fill:transparent" d="M0 0h24v24H0z"/>
    <path data-name="Path 17852" d="M16.143 19H6.857A1.819 1.819 0 0 1 5 17.222V4.778A1.819 1.819 0 0 1 6.857 3h5.187a.95.95 0 0 1 .656.26l5.027 4.813A.87.87 0 0 1 18 8.7v8.521A1.819 1.819 0 0 1 16.143 19z" transform="translate(.5 1)" style="stroke:#e3e9f3;stroke-width:2px;fill:none;stroke-linecap:round;stroke-linejoin:round"/>
    <path data-name="Path 17853" d="M10.429 9.222v4m0 0-2-2m2 2 2-2" transform="translate(1.571 2.777)" style="stroke:#0b82f0;stroke-width:1.25px;fill:none;stroke-linecap:round;stroke-linejoin:round"/>
</svg>
