<svg xmlns="http://www.w3.org/2000/svg" width="16" height="16" viewBox="0 0 16 16">
    <path data-name="Path 17701" d="M12.333 7.667V6.333A1.333 1.333 0 0 0 11 5H4.333A1.333 1.333 0 0 0 3 6.333v4a1.333 1.333 0 0 0 1.333 1.333h1.334M7 14.333h6.667A1.333 1.333 0 0 0 15 13V9a1.333 1.333 0 0 0-1.333-1.333H7A1.333 1.333 0 0 0 5.667 9v4A1.333 1.333 0 0 0 7 14.333zM11.667 11a1.333 1.333 0 1 1-1.333-1.333A1.333 1.333 0 0 1 11.667 11z" transform="translate(-1 -1.667)" stroke="currentColor" style="fill:none;stroke-linecap:round;stroke-linejoin:round"/>
</svg>
