<svg xmlns="http://www.w3.org/2000/svg" width="48" height="48" viewBox="0 0 48 48">
    <g transform="translate(0 .324)">
        <rect data-name="Rectangle 19728" width="48" height="48" rx="8" transform="translate(0 -.324)" style="fill:#fff4e8"/>
        <path data-name="Path 17892" d="m11.809-6.91-4.5-1.758a1.211 1.211 0 0 0-.867 0L1.941-6.91a1.056 1.056 0 0 0-.691.973 8.88 8.88 0 0 0 5.191 8.355 1.212 1.212 0 0 0 .867 0A8.851 8.851 0 0 0 12.5-5.937a1.056 1.056 0 0 0-.691-.973zM6.875.563v-7.387l3.73 1.457a6.987 6.987 0 0 1-3.73 5.93zM-3.75-7.5a5 5 0 0 0 5-5 5 5 0 0 0-5-5 5 5 0 0 0-5 5 5 5 0 0 0 5 5zM0-5.937a2.22 2.22 0 0 1 .043-.281c-.1 0-.191-.031-.293-.031H-.9a6.807 6.807 0 0 1-2.848.625A6.821 6.821 0 0 1-6.6-6.25h-.65A5.251 5.251 0 0 0-12.5-1V.625A1.875 1.875 0 0 0-10.625 2.5h13.75a1.923 1.923 0 0 0 .75-.156A10.5 10.5 0 0 1 0-5.937z" transform="translate(24 31.176)" style="fill:#ffba46"/>
    </g>
</svg>
