<svg xmlns="http://www.w3.org/2000/svg" width="16" height="16" viewBox="0 0 16 16">
    <path data-name="Rectangle 19728" style="fill:transparent" d="M0 0h16v16H0z"/>
    <g data-name="Group 22285">
        <g data-name="Path 17888" style="fill:none;stroke-linecap:round;fill-rule:evenodd">
            <path d="M4 3.25A1.294 1.294 0 0 1 5.333 2h3.058a1.38 1.38 0 0 1 .942.366L11.609 4.5a1.212 1.212 0 0 1 .391.884v5.366A1.294 1.294 0 0 1 10.667 12H5.333A1.294 1.294 0 0 1 4 10.75zM5.333 7A.647.647 0 0 1 6 6.375h4a.626.626 0 1 1 0 1.25H6A.647.647 0 0 1 5.333 7zM6 8.875a.626.626 0 1 0 0 1.25h4a.626.626 0 1 0 0-1.25z" style="stroke:none" transform="translate(0 1)"/>
            <path d="M5.333 2C4.597 2 4 2.56 4 3.25v7.5c0 .69.597 1.25 1.333 1.25h5.334c.736 0 1.333-.56 1.333-1.25V5.384c0-.332-.14-.65-.39-.884L9.332 2.366A1.38 1.38 0 0 0 8.391 2H5.333M10 7.625H6c-.368 0-.667-.28-.667-.625s.299-.625.667-.625h4c.368 0 .667.28.667.625s-.299.625-.667.625m0 2.5H6c-.368 0-.667-.28-.667-.625s.299-.625.667-.625h4c.368 0 .667.28.667.625s-.299.625-.667.625M5.333 1h3.058c.61 0 1.188.226 1.626.636l2.276 2.134c.45.421.707 1.01.707 1.614v5.366c0 1.24-1.047 2.25-2.333 2.25H5.333C4.047 13 3 11.99 3 10.75v-7.5C3 2.01 4.047 1 5.333 1z" style="fill:currentColor;stroke:none" transform="translate(0 1)"/>
        </g>
    </g>
</svg>
