<svg xmlns="http://www.w3.org/2000/svg" width="20" height="26.5" viewBox="0 0 20 26.5">
    <path data-name="Path 2" d="m859.1 363.082.038-13.5a1.1 1.1 0 0 1 .4-.846l2.7-2.612a.184.184 0 0 1 .3.141l-.038 14.175a1.839 1.839 0 0 0 1.839 1.839H875.1a.276.276 0 0 1 .178.488l-2.586 2.63a1.1 1.1 0 0 1-.71.258h-10.3a2.575 2.575 0 0 1-2.582-2.573z" transform="translate(-859.096 -339.158)" style="fill:#fff"/>
    <path data-name="Path 1" d="M879.1 283.391v10.2a1.078 1.078 0 0 1-.387.826l-2.507 2.478a.275.275 0 0 1-.385-.032.268.268 0 0 1-.065-.175V284.7a1.078 1.078 0 0 0-.389-.828l-7.377-7.28-7.979 7.887v13.486a1.813 1.813 0 0 0 1.822 1.8h11.539l-.932.952h-10.793a2.538 2.538 0 0 1-2.547-2.517v-14.074l.327-.271a1.084 1.084 0 0 1 .11-.1l9.188-9.072v.02l.268-.222a1.246 1.246 0 0 1 1.5 0l8.214 8.085a1.078 1.078 0 0 1 .393.825z" transform="translate(-859.096 -274.224)" style="fill:#cedbf2;fill-rule:evenodd"/>
</svg>
