<svg xmlns="http://www.w3.org/2000/svg" width="32" height="32" viewBox="0 0 32 32">
    <path data-name="Rectangle 19728" style="fill:transparent" d="M0 0h32v32H0z"/>
    <g data-name="Group 20874">
        <path data-name="Path 17804" d="M2 6a2.136 2.136 0 0 1 2.25-2H11a2.136 2.136 0 0 1 2.25 2v8A2.136 2.136 0 0 1 11 16H4.25A2.136 2.136 0 0 1 2 14zm14.122 1.106A1 1 0 0 0 15.5 8v4a1 1 0 0 0 .622.894l2.25 1a1.248 1.248 0 0 0 1.094-.044A.981.981 0 0 0 20 13V7a.981.981 0 0 0-.534-.85 1.248 1.248 0 0 0-1.094-.044l-2.25 1z" transform="translate(5 6)" style="fill:#fff"/>
    </g>
</svg>
