<svg xmlns="http://www.w3.org/2000/svg" width="24" height="24" viewBox="0 0 24 24">
    <path data-name="Path 2602" d="M13.625 15.444H18L16.771 14.2a1.821 1.821 0 0 1-.521-1.277v-2.812a5.331 5.331 0 0 0-3.5-5.03v-.3a1.75 1.75 0 1 0-3.5 0v.3a5.332 5.332 0 0 0-3.5 5.03v2.808a1.821 1.821 0 0 1-.521 1.281L4 15.444h4.375m5.25 0v.889a2.625 2.625 0 1 1-5.25 0v-.889m5.25 0h-5.25" transform="translate(1 1)"  stroke="currentColor" style="fill:none;stroke-linecap:round;stroke-linejoin:round;stroke-width:2px"/>
</svg>
