<svg xmlns="http://www.w3.org/2000/svg" width="32" height="37" viewBox="0 0 32 37">
    <g>
        <path fill="rgba(255,255,255,0)" d="M0 0H32V36H0z" transform="translate(15578.082 -6489.016) translate(-15578.082 6489.516)"/>
        <path fill="none" stroke="#333" d="M-15577.083 6494.087s1.019-4.572 4.8-4.572h17.174l8.023 8.087v23.591s-.536 4.322-4.824 4.322-21.039-.029-21.039-.029-4.137.208-4.137-6.075z" transform="translate(15578.082 -6489.016)"/>
        <path fill="#999" d="M17.573-1.5c-.808-.795-3.113-.576-4.266-.431A5.744 5.744 0 0 1 10.87-5a8.331 8.331 0 0 0 .358-3.709A1.476 1.476 0 0 0 8.407-9.1a9.541 9.541 0 0 0 .463 4.443A53.186 53.186 0 0 1 6.525.271C5.2.954 3.412 2.007 3.147 3.331 2.929 4.378 4.87 6.988 8.188 1.265a32.84 32.84 0 0 1 4.53-1.331 8.813 8.813 0 0 0 3.7 1.126 1.53 1.53 0 0 0 1.155-2.56zM4.452 3.649a7.943 7.943 0 0 1 2.014-2.318C5.207 3.338 4.452 3.7 4.452 3.649zm5.4-12.624c.49 0 .444 2.126.119 2.7a5.554 5.554 0 0 1-.114-2.7zM8.241.073A26 26 0 0 0 9.877-3.55a7.3 7.3 0 0 0 1.994 2.35A22.412 22.412 0 0 0 8.241.073zm8.717-.331s-.331.4-2.471-.517c2.325-.172 2.713.358 2.471.516z" transform="translate(15578.082 -6489.016) translate(-15572.141 6509.899)"/>
    </g>
</svg>
