<svg xmlns="http://www.w3.org/2000/svg" width="90" height="90" viewBox="0 0 90 90">
    <g data-name="Group 22397" transform="translate(-117.466 -93.466)">
        <rect width="90" height="90" rx="8" transform="translate(117.466 93.466)" style="fill:#9aa2ac"/>
        <path data-name="frame icon" transform="translate(142.466 118.495)" style="fill:none" d="M0 0h40v39.971H0z"/>
        <path d="M-9.712-33.419A9.841 9.841 0 0 0-.011-43.4a9.841 9.841 0 0 0-9.7-9.978 9.841 9.841 0 0 0-9.7 9.978 9.841 9.841 0 0 0 9.699 9.981zm6.79 2.495h-1.265a12.9 12.9 0 0 1-5.525 1.247 12.924 12.924 0 0 1-5.525-1.247H-16.5a10.337 10.337 0 0 0-10.188 10.477v3.247a3.692 3.692 0 0 0 3.638 3.742H3.626A3.692 3.692 0 0 0 7.264-17.2v-3.243A10.337 10.337 0 0 0-2.922-30.924z" transform="translate(172.119 171.841)" style="fill:#d2d6da"/>
    </g>
</svg>
