<svg xmlns="http://www.w3.org/2000/svg" width="48" height="48" viewBox="0 0 48 48">
    <g transform="translate(0 .324)">
        <rect data-name="Rectangle 19728" width="48" height="48" rx="8" transform="translate(0 -.324)" style="fill:#e6f4ff"/>
        <g data-name="Group 20874">
            <path data-name="Path 17805" d="M4.571 5a3.074 3.074 0 0 1 3.143-3h12.572a3.074 3.074 0 0 1 3.143 3v18a1.5 1.5 0 1 1 0 3h-4.715a1.537 1.537 0 0 1-1.571-1.5v-3a1.537 1.537 0 0 0-1.572-1.5h-3.142a1.537 1.537 0 0 0-1.571 1.5v3A1.537 1.537 0 0 1 9.286 26H4.571a1.5 1.5 0 1 1 0-3zm4.715 1.5h3.143v3H9.286zm3.143 6H9.286v3h3.143zm3.143-6h3.143v3h-3.144zm3.143 6h-3.144v3h3.143z" transform="translate(10 9.676)" style="fill:#0b82f0;fill-rule:evenodd"/>
        </g>
    </g>
</svg>
