<svg xmlns="http://www.w3.org/2000/svg" width="40" height="40" viewBox="0 0 40 40">
    <path data-name="Rectangle 19729" style="fill:transparent" d="M0 0h40v40H0z"/>
    <path data-name="Path 17692" d="M19.135 3.982a2.565 2.565 0 0 1 4.861 0L26.73 12.3a2.553 2.553 0 0 0 2.428 1.744h8.848a2.526 2.526 0 0 1 1.5 4.576l-7.156 5.142a2.513 2.513 0 0 0-.93 2.826l2.735 8.322a2.55 2.55 0 0 1-3.936 2.826L23.065 32.6a2.579 2.579 0 0 0-3 0l-7.156 5.142a2.549 2.549 0 0 1-3.933-2.826l2.735-8.322a2.513 2.513 0 0 0-.93-2.826l-7.158-5.141a2.526 2.526 0 0 1 1.5-4.576h8.846a2.553 2.553 0 0 0 2.431-1.744l2.735-8.322z" transform="translate(-1.566 -.236)" style="fill:#d2dae5"/>
</svg>
