<svg xmlns="http://www.w3.org/2000/svg" width="16" height="16" viewBox="0 0 16 16">
    <path data-name="Rectangle 19728" style="fill:transparent" d="M0 0h16v16H0z"/>
    <path data-name="Path 17869" d="M7.857 4.333H6.429A1.383 1.383 0 0 0 5 5.667v8A1.383 1.383 0 0 0 6.429 15h7.143A1.383 1.383 0 0 0 15 13.667v-8a1.383 1.383 0 0 0-1.429-1.333h-1.428m-4.286 0a1.383 1.383 0 0 0 1.429 1.333h1.429a1.383 1.383 0 0 0 1.429-1.333m-4.286 0A1.383 1.383 0 0 1 9.286 3h1.429a1.383 1.383 0 0 1 1.429 1.333M10 9h2.143M10 11.667h2.143M7.857 9h.007m-.007 2.667h.007" transform="translate(-2 -1)" style="fill:none;stroke:currentColor;stroke-linecap:round;stroke-linejoin:round"/>
</svg>
