<svg xmlns="http://www.w3.org/2000/svg" width="16" height="16" viewBox="0 0 16 16">
    <path data-name="Rectangle 19728" style="fill:transparent" d="M0 0h16v16H0z"/>
    <path data-name="Path 17871" d="M6.75 4.333H5.375A1.355 1.355 0 0 0 4 5.667v8A1.355 1.355 0 0 0 5.375 15h6.875a1.355 1.355 0 0 0 1.375-1.333V13M6.75 4.333a1.355 1.355 0 0 0 1.375 1.334H9.5a1.355 1.355 0 0 0 1.375-1.333m-4.125 0A1.355 1.355 0 0 1 8.125 3H9.5a1.355 1.355 0 0 1 1.375 1.333m0 0h1.375a1.355 1.355 0 0 1 1.375 1.333v2M15 10.333H8.125m0 0 2.062-2m-2.062 2 2.062 2" transform="translate(-1.5 -1)" style="fill:none;stroke:currentColor;stroke-linecap:round;stroke-linejoin:round"/>
</svg>
