<svg xmlns="http://www.w3.org/2000/svg" width="24" height="24" viewBox="0 0 24 24">
    <path data-name="frame icon" style="fill:none" d="M0 0h24v24H0z"/>
    <path data-name="Path 17848" d="M4.714 2A1.732 1.732 0 0 0 3 3.75V16l3-1.75L9 16l3-1.75L15 16V3.75A1.732 1.732 0 0 0 13.286 2zm2.143 2.625a1.313 1.313 0 1 0 1.286 1.313 1.3 1.3 0 0 0-1.286-1.313zm5.32.256a.845.845 0 0 0-1.212 0l-5.143 5.25a.888.888 0 0 0 0 1.237.845.845 0 0 0 1.212 0l5.143-5.25a.888.888 0 0 0 0-1.237zM11.143 9a1.313 1.313 0 1 0 1.286 1.313A1.3 1.3 0 0 0 11.143 9z" transform="translate(3 3)" style="fill:currentColor;fill-rule:evenodd"/>
</svg>
