<svg xmlns="http://www.w3.org/2000/svg" width="16" height="16" viewBox="0 0 16 16">
    <path data-name="Path 2" d="M7.714 2a.79.79 0 0 0-.7.415L6.443 3.5H3.786a.751.751 0 1 0 0 1.5v7.5A1.537 1.537 0 0 0 5.357 14h6.286a1.537 1.537 0 0 0 1.571-1.5V5a.751.751 0 1 0 0-1.5h-2.657l-.569-1.085A.79.79 0 0 0 9.286 2zM6.143 6.5a.787.787 0 0 1 1.571 0V11a.787.787 0 0 1-1.571 0zm3.929-.75a.768.768 0 0 0-.786.75V11a.787.787 0 0 0 1.571 0V6.5a.768.768 0 0 0-.786-.75z" transform="translate(-.5)" style="fill:currentColor;fill-rule:evenodd"/>
</svg>
