<svg xmlns="http://www.w3.org/2000/svg" width="48" height="48" viewBox="0 0 48 48">
    <g transform="translate(0 .324)">
        <rect data-name="Rectangle 19728" width="48" height="48" rx="8" transform="translate(0 -.324)" style="fill:#ffebed"/>
        <g data-name="Group 20874">
            <path data-name="Path 17890" d="M15.571 22.626a1.347 1.347 0 0 0 .745 1.169 1.768 1.768 0 0 0 1.528.06l6.286-2.75a1.369 1.369 0 0 0 .87-1.229V11.95a1.347 1.347 0 0 0-.745-1.169 1.768 1.768 0 0 0-1.528-.06l-6.286 2.75a1.369 1.369 0 0 0-.869 1.229zM22.189 7.88a1.369 1.369 0 0 0 .867-1.229 1.369 1.369 0 0 0-.867-1.229L14.7 2.146a1.774 1.774 0 0 0-1.4 0L5.811 5.421a1.369 1.369 0 0 0-.867 1.229 1.369 1.369 0 0 0 .867 1.23l7.489 3.275a1.774 1.774 0 0 0 1.4 0l7.489-3.275zM5.274 10.721a1.768 1.768 0 0 0-1.528.06A1.347 1.347 0 0 0 3 11.95v7.926a1.369 1.369 0 0 0 .869 1.229l6.286 2.75a1.768 1.768 0 0 0 1.528-.06 1.347 1.347 0 0 0 .745-1.169V14.7a1.369 1.369 0 0 0-.869-1.229l-6.286-2.75z" transform="translate(10 10.675)" style="fill:#f7575f"/>
        </g>
    </g>
</svg>
