<svg xmlns="http://www.w3.org/2000/svg" width="24" height="24" viewBox="0 0 24 24">
    <path style="fill:transparent" d="M0 0h24v24H0z"/>
    <path data-name="Path 17900" d="m15.8-4.492-2.924-1.142a.787.787 0 0 0-.564 0L9.387-4.492a.687.687 0 0 0-.449.632 5.772 5.772 0 0 0 3.374 5.431.788.788 0 0 0 .564 0 5.753 5.753 0 0 0 3.374-5.43.687.687 0 0 0-.45-.633zM12.594.366v-4.8l2.425.947A4.542 4.542 0 0 1 12.594.366zM5.687-4.875a3.25 3.25 0 0 0 3.25-3.25 3.25 3.25 0 0 0-3.25-3.25 3.25 3.25 0 0 0-3.25 3.25 3.25 3.25 0 0 0 3.25 3.25zm2.438 1.016a1.443 1.443 0 0 1 .028-.183c-.063 0-.124-.02-.19-.02h-.425a4.425 4.425 0 0 1-1.851.406 4.434 4.434 0 0 1-1.851-.406h-.423A3.413 3.413 0 0 0 0-.65V.406a1.219 1.219 0 0 0 1.219 1.219h8.937a1.25 1.25 0 0 0 .488-.1 6.822 6.822 0 0 1-2.519-5.384z" transform="translate(4 17)" style="fill:#141b29"/>
</svg>
