<svg xmlns="http://www.w3.org/2000/svg" width="32" height="32" viewBox="0 0 32 32">
    <path data-name="Rectangle 19728" style="fill:transparent" d="M0 0h32v32H0z"/>
    <path data-name="Path 17809" d="M-4-6A3.5 3.5 0 0 0-.5-9.5 3.5 3.5 0 0 0-4-13a3.5 3.5 0 0 0-3.5 3.5A3.5 3.5 0 0 0-4-6zm2.4 1h-.259A4.923 4.923 0 0 1-4-4.5 4.933 4.933 0 0 1-6.141-5H-6.4A3.6 3.6 0 0 0-10-1.4v.9A1.5 1.5 0 0 0-8.5 1h9A1.5 1.5 0 0 0 2-.5v-.9A3.6 3.6 0 0 0-1.6-5zM5-6a3 3 0 0 0 3-3 3 3 0 0 0-3-3 3 3 0 0 0-3 3 3 3 0 0 0 3 3zm1.5 1h-.119A4.211 4.211 0 0 1 5-4.75 4.211 4.211 0 0 1 3.619-5H3.5a3.471 3.471 0 0 0-1.741.481A4.573 4.573 0 0 1 3-1.4v1.2c0 .069-.016.134-.019.2H8.5A1.5 1.5 0 0 0 10-1.5 3.5 3.5 0 0 0 6.5-5z" transform="translate(16 22)" style="fill:currentColor"/>
</svg>
