<svg xmlns="http://www.w3.org/2000/svg" width="48" height="48" viewBox="0 0 48 48">
    <g transform="translate(0 .324)">
        <rect data-name="Rectangle 19728" width="48" height="48" rx="8" transform="translate(0 -.324)" style="fill:#def9f3"/>
        <path data-name="Path 17891" d="M-2.2-4a4.523 4.523 0 0 0 4.55-4.5A4.523 4.523 0 0 0-2.2-13a4.523 4.523 0 0 0-4.55 4.5A4.523 4.523 0 0 0-2.2-4zM.92-2.714H.583a6.458 6.458 0 0 1-2.783.643 6.472 6.472 0 0 1-2.783-.643h-.337A4.656 4.656 0 0 0-10 1.914v1.157A1.94 1.94 0 0 0-8.05 5h11.7A1.94 1.94 0 0 0 5.6 3.071V1.914A4.656 4.656 0 0 0 .92-2.714zM9.5-4a3.88 3.88 0 0 0 3.9-3.857 3.88 3.88 0 0 0-3.9-3.857 3.88 3.88 0 0 0-3.9 3.857A3.88 3.88 0 0 0 9.5-4zm1.95 1.286h-.15a5.528 5.528 0 0 1-1.8.321 5.528 5.528 0 0 1-1.8-.321h-.15a4.55 4.55 0 0 0-2.263.614A5.845 5.845 0 0 1 6.9 1.914v1.543c0 .088-.02.173-.024.257h7.174A1.94 1.94 0 0 0 16 1.786a4.523 4.523 0 0 0-4.55-4.5z" transform="translate(21 27.676)" style="fill:#48bea2"/>
    </g>
</svg>
