<svg xmlns="http://www.w3.org/2000/svg" width="16" height="16" viewBox="0 0 16 16">
    <path data-name="Rectangle 19728" style="fill:transparent" d="M0 0h16v16H0z"/>
    <path data-name="Path 17875" d="M11 14h3v-1.25a1.871 1.871 0 0 0-1.21-1.771 1.757 1.757 0 0 0-2 .611M11 14H5m6 0v-1.25a3.228 3.228 0 0 0-.214-1.161M5 14H2v-1.25a1.871 1.871 0 0 1 1.21-1.771 1.757 1.757 0 0 1 2 .611M5 14v-1.25a3.228 3.228 0 0 1 .214-1.161m0 0a2.958 2.958 0 0 1 5.573 0M9.8 5.875a1.8 1.8 0 1 1-3.6 0 1.8 1.8 0 1 1 3.6 0zm3.6 1.875a1.2 1.2 0 1 1-1.2-1.25 1.226 1.226 0 0 1 1.2 1.25zm-8.4 0A1.226 1.226 0 0 1 3.8 9a1.251 1.251 0 0 1 0-2.5A1.226 1.226 0 0 1 5 7.75z" transform="translate(0 -1)" style="fill:none;stroke:currentColor;stroke-linecap:round;stroke-linejoin:round"/>
</svg>
