<svg xmlns="http://www.w3.org/2000/svg" width="16" height="16" viewBox="0 0 16 16">
    <defs>
        <style>
            .cls-3-user-specialist{fill:none}.cls-4-user-specialist,.cls-5-user-specialist{stroke:none}.cls-5-user-specialist{fill:currentColor}
        </style>
    </defs>
    <g id="menu_16dp" transform="translate(-630)">
        <path id="Rectangle_19728" data-name="Rectangle 19728" transform="translate(630)" style="fill:transparent" d="M0 0h16v16H0z"/>
        <path id="Path_17828" data-name="Path 17828" d="M11.286 5.222a2.287 2.287 0 0 1-4.571 0 2.287 2.287 0 0 1 4.571 0zM9 9.111A3.946 3.946 0 0 0 5 13h8a3.946 3.946 0 0 0-4-3.889z" transform="translate(629)" style="stroke:#3858a0;stroke-linecap:round;stroke-linejoin:round;fill:none"/>
        <g id="Polygon_6" data-name="Polygon 6" class="cls-3-user-specialist">
            <path class="cls-4-user-specialist" d="M1.5 0 3 2H0z" transform="rotate(180 319.75 5.175)"/>
            <path class="cls-5-user-specialist" d="M1.5 0 3 2H0l1.5-2z" transform="rotate(180 319.75 5.175)"/>
        </g>
        <g id="Polygon_7" data-name="Polygon 7" class="cls-3-user-specialist">
            <path class="cls-4-user-specialist" d="M1.5 0 3 4.25H0z" transform="translate(636.5 9.25)"/>
            <path class="cls-5-user-specialist" d="M1.5 0 3 4.25H0L1.5 0z" transform="translate(636.5 9.25)"/>
        </g>
    </g>
</svg>
