<svg xmlns="http://www.w3.org/2000/svg" width="18.306" height="18.305" viewBox="0 0 18.306 18.305">
    <g>
        <path fill="rgba(0,0,0,0)" d="M0 0h16v16H0zm0 0h16v16H0zm0 0h16v16H0zm0 0h16v16H0z" transform="translate(1.153 1.152)"/>
        <path fill="none" stroke="#999" stroke-linecap="round" stroke-linejoin="round" stroke-width="2px" d="M8.385 11.073l1.792 1.792 3.585-3.585M7.341 4.528a3.065 3.065 0 0 0 1.744-.722 3.065 3.065 0 0 1 3.977 0 3.065 3.065 0 0 0 1.744.722 3.065 3.065 0 0 1 2.812 2.812 3.065 3.065 0 0 0 .722 1.744 3.065 3.065 0 0 1 0 3.977 3.065 3.065 0 0 0-.722 1.744 3.065 3.065 0 0 1-2.812 2.812 3.065 3.065 0 0 0-1.744.722 3.065 3.065 0 0 1-3.977 0 3.065 3.065 0 0 0-1.744-.722 3.065 3.065 0 0 1-2.812-2.812 3.065 3.065 0 0 0-.722-1.744 3.065 3.065 0 0 1 0-3.977 3.065 3.065 0 0 0 .722-1.744 3.065 3.065 0 0 1 2.812-2.812z" transform="translate(1.153 1.152) translate(-3.074 -3.073)"/>
    </g>
</svg>
