<svg xmlns="http://www.w3.org/2000/svg" width="24" height="24">
    <path style="fill:transparent" d="M0 0h24v24H0z"/>
    <path d="M11-.312 1.624-16.563a1.876 1.876 0 0 0-3.248 0L-11-.312A1.876 1.876 0 0 0-9.373 2.5H9.373A1.876 1.876 0 0 0 11-.312zM0-3.672a1.8 1.8 0 0 1 1.8 1.8A1.8 1.8 0 0 1 0-.078a1.8 1.8 0 0 1-1.8-1.8A1.8 1.8 0 0 1 0-3.672zm-1.706-6.459a.469.469 0 0 1 .468-.494h2.476a.469.469 0 0 1 .468.494l-.29 5.312a.469.469 0 0 1-.468.443h-1.9a.469.469 0 0 1-.468-.443z" transform="translate(12 19)" style="fill:currentColor"/>
</svg>
